<svg xmlns="http://www.w3.org/2000/svg" viewBox="0 0 463 869"><defs><style>.cls-1{fill:#fff;}</style></defs><g id="ux"><g id="móvil"><circle class="cls-1" cx="272" cy="31" r="5"/><path class="cls-1" d="M400,0H65.75A65.83,65.83,0,0,0,0,65.75V806.2A63,63,0,0,0,63,869H400a63,63,0,0,0,63-62.8V62.8A63,63,0,0,0,400,0ZM4,65.75A61.82,61.82,0,0,1,65.75,4h310.5A61.82,61.82,0,0,1,438,65.75v728.5A61.82,61.82,0,0,1,376.25,856H65.75A61.82,61.82,0,0,1,4,794.25V65.75Z"/><path class="cls-1" d="M74.4,834.17H367.6c25.31,0,45.9-20.95,45.9-46.71V72.54c0-25.76-20.59-46.71-45.9-46.71H335.68a19,19,0,0,0-18.79,19.1,15.16,15.16,0,0,1-4.35,10.7A14.59,14.59,0,0,1,302.09,60H139.91a15,15,0,0,1-14.8-15.11,19.15,19.15,0,0,0-5.49-13.49,18.49,18.49,0,0,0-13.3-5.61H74.4c-25.31,0-45.9,21-45.9,46.71V787.46C28.5,813.22,49.09,834.17,74.4,834.17ZM32.5,72.54C32.5,49,51.3,29.83,74.4,29.83h31.92a14.55,14.55,0,0,1,10.44,4.41,15.16,15.16,0,0,1,4.35,10.69A19,19,0,0,0,139.91,64H302.09a18.55,18.55,0,0,0,13.31-5.61,19.17,19.17,0,0,0,5.49-13.5,15,15,0,0,1,14.79-15.1H367.6c23.1,0,41.9,19.16,41.9,42.71V787.46c0,23.55-18.8,42.71-41.9,42.71H74.4c-23.1,0-41.9-19.16-41.9-42.71Z"/><path class="cls-1" d="M191,36h60a5,5,0,0,0,0-10H191a5,5,0,0,0,0,10Z"/></g><g id="pantalla"><path id="cuadrado_grande_arriba" data-name="cuadrado grande arriba" class="cls-1" d="M353.85,395.76l.06-.2a.84.84,0,0,0,0-.17,1.72,1.72,0,0,0,0-.39V134a1.72,1.72,0,0,0,0-.39.84.84,0,0,0,0-.17l-.06-.2a1.28,1.28,0,0,0-.11-.2.55.55,0,0,0-.08-.15,1.8,1.8,0,0,0-.55-.55.55.55,0,0,0-.15-.08l-.2-.11-.2-.06-.17-.05a1.72,1.72,0,0,0-.39,0H91a1.72,1.72,0,0,0-.39,0l-.17.05-.21.06-.18.1a1.29,1.29,0,0,0-.16.09,1.8,1.8,0,0,0-.55.55.55.55,0,0,0-.08.15,1.28,1.28,0,0,0-.11.2l-.06.2a.84.84,0,0,0,0,.17,1.72,1.72,0,0,0,0,.39V395a1.72,1.72,0,0,0,0,.39.84.84,0,0,0,0,.17l.06.2a1.28,1.28,0,0,0,.11.2.55.55,0,0,0,.08.15,1.8,1.8,0,0,0,.55.55.83.83,0,0,0,.16.09l.19.1.2.06.17,0a1.72,1.72,0,0,0,.39,0H352a1.72,1.72,0,0,0,.39,0l.17,0,.2-.06.2-.11a.55.55,0,0,0,.15-.08,1.8,1.8,0,0,0,.55-.55.55.55,0,0,0,.08-.15A1.28,1.28,0,0,0,353.85,395.76ZM218.67,264.5,93,390.17V138.83ZM95.83,136H347.17L221.5,261.67ZM221.5,267.33,347.17,393H95.83Zm2.83-2.83L350,138.83V390.17Z"/><path id="cuadrado_pequeño_izquierda" data-name="cuadrado pequeño izquierda" class="cls-1" d="M198.7,591.39a1.17,1.17,0,0,0,.06-.2.84.84,0,0,0,.05-.17,1.72,1.72,0,0,0,0-.39V484.7a1.72,1.72,0,0,0,0-.39,1.09,1.09,0,0,0-.05-.17,1.17,1.17,0,0,0-.06-.2l-.1-.2a.67.67,0,0,0-.09-.14A2,2,0,0,0,198,483l-.16-.09-.18-.09-.21-.07-.17-.05a2.58,2.58,0,0,0-.39,0H90.93a2.58,2.58,0,0,0-.4,0l-.16.05-.21.07L90,483l-.16.09a2.13,2.13,0,0,0-.56.56s-.05.09-.08.14l-.1.2a1.17,1.17,0,0,0-.06.2l-.06.17a2.56,2.56,0,0,0,0,.39V590.63a2.56,2.56,0,0,0,0,.39l.06.17a1.17,1.17,0,0,0,.06.2l.1.2.08.15a2,2,0,0,0,.56.55l.15.08a1.18,1.18,0,0,0,.19.11l.2.06.17.05a1.75,1.75,0,0,0,.4,0H196.85a1.72,1.72,0,0,0,.39,0l.17-.05.21-.06.19-.1a1.19,1.19,0,0,0,.15-.09,1.8,1.8,0,0,0,.55-.55,1.19,1.19,0,0,0,.09-.15Zm-57.64-53.72L92.93,585.8V489.53Zm-45.31-51H192l-48.13,48.14Zm48.14,53.79L192,588.63H95.75Zm2.83-2.82,48.13-48.14V585.8Z"/><g id="líneas_cortas_derecha" data-name="líneas cortas derecha"><path id="línea_4" data-name="línea 4" class="cls-1" d="M352,593H251a2,2,0,0,1,0-4H352a2,2,0,0,1,0,4Z"/><path id="línea_3" data-name="línea 3" class="cls-1" d="M352,557.67H251a2,2,0,0,1,0-4H352a2,2,0,0,1,0,4Z"/><path id="línea_2" data-name="línea 2" class="cls-1" d="M352,522.33H251a2,2,0,0,1,0-4H352a2,2,0,0,1,0,4Z"/><path id="línea_1" data-name="línea 1" class="cls-1" d="M352,487H251a2,2,0,0,1,0-4H352a2,2,0,0,1,0,4Z"/></g><g id="líneas_largas_abajo" data-name="líneas largas abajo"><path id="línea_4-2" data-name="línea 4" class="cls-1" d="M352,753H91a2,2,0,0,1,0-4H352a2,2,0,0,1,0,4Z"/><path id="línea_3-2" data-name="línea 3" class="cls-1" d="M352,718H91a2,2,0,0,1,0-4H352a2,2,0,0,1,0,4Z"/><path id="línea_2-2" data-name="línea 2" class="cls-1" d="M352,683H91a2,2,0,0,1,0-4H352a2,2,0,0,1,0,4Z"/><path id="línea_1-2" data-name="línea 1" class="cls-1" d="M352,648H91a2,2,0,0,1,0-4H352a2,2,0,0,1,0,4Z"/></g></g></g></svg>