<svg xmlns="http://www.w3.org/2000/svg" viewBox="0 0 973 869"><defs><style>.cls-1,.cls-4{fill:#fff;}.cls-2{fill:#ef75ff;}.cls-3{fill:#59fff1;}.cls-4{stroke:#fff;stroke-linecap:round;stroke-linejoin:round;stroke-width:2px;}</style></defs><g id="ui"><g id="móvil"><circle class="cls-1" cx="510" cy="31" r="5"/><path class="cls-1" d="M638,0H303.75A65.83,65.83,0,0,0,238,65.75V806.2A63,63,0,0,0,301,869H638a63,63,0,0,0,63-62.8V62.8A63,63,0,0,0,638,0ZM242,65.75A61.82,61.82,0,0,1,303.75,4h310.5A61.82,61.82,0,0,1,676,65.75v728.5A61.82,61.82,0,0,1,614.25,856H303.75A61.82,61.82,0,0,1,242,794.25V65.75Z"/><path class="cls-1" d="M312.4,834.17H605.6c25.31,0,45.9-20.95,45.9-46.71V72.54c0-25.76-20.59-46.71-45.9-46.71H573.68a19,19,0,0,0-18.79,19.1,15.16,15.16,0,0,1-4.35,10.7A14.59,14.59,0,0,1,540.09,60H377.91a15,15,0,0,1-14.8-15.11,19.15,19.15,0,0,0-5.49-13.49,18.49,18.49,0,0,0-13.3-5.61H312.4c-25.31,0-45.9,21-45.9,46.71V787.46C266.5,813.22,287.09,834.17,312.4,834.17ZM270.5,72.54c0-23.55,18.8-42.71,41.9-42.71h31.92a14.55,14.55,0,0,1,10.44,4.41,15.16,15.16,0,0,1,4.35,10.69A19,19,0,0,0,377.91,64H540.09a18.55,18.55,0,0,0,13.31-5.61,19.17,19.17,0,0,0,5.49-13.5,15,15,0,0,1,14.79-15.1H605.6c23.1,0,41.9,19.16,41.9,42.71V787.46c0,23.55-18.8,42.71-41.9,42.71H312.4c-23.1,0-41.9-19.16-41.9-42.71Z"/><path class="cls-1" d="M429,36h60a5,5,0,0,0,0-10H429a5,5,0,0,0,0,10Z"/></g><g id="pantalla"><g id="línea_derecha_cortas" data-name="línea derecha cortas"><path id="línea_4" data-name="línea 4" class="cls-1" d="M590,593H489a2,2,0,0,1,0-4H590a2,2,0,0,1,0,4Z"/><path id="línea_3" data-name="línea 3" class="cls-1" d="M590,557.67H489a2,2,0,0,1,0-4H590a2,2,0,0,1,0,4Z"/><path id="línea_2" data-name="línea 2" class="cls-1" d="M590,522.33H489a2,2,0,0,1,0-4H590a2,2,0,0,1,0,4Z"/><path id="línea_1" data-name="línea 1" class="cls-1" d="M590,487H489a2,2,0,0,1,0-4H590a2,2,0,0,1,0,4Z"/></g><g id="líneas_abajo_largas" data-name="líneas abajo largas"><path id="línea_4-2" data-name="línea 4" class="cls-2" d="M590,753H329a2,2,0,0,1,0-4H590a2,2,0,0,1,0,4Z"/><path id="línea_3-2" data-name="línea 3" class="cls-2" d="M590,718H329a2,2,0,0,1,0-4H590a2,2,0,0,1,0,4Z"/><path id="línea_2-2" data-name="línea 2" class="cls-2" d="M590,683H329a2,2,0,0,1,0-4H590a2,2,0,0,1,0,4Z"/><path id="línea_1-2" data-name="línea 1" class="cls-2" d="M590,648H329a2,2,0,0,1,0-4H590a2,2,0,0,1,0,4Z"/></g><path id="icono_persona" data-name="icono persona" class="cls-2" d="M328.93,484.7V590.63H348v-.13a33.5,33.5,0,0,1,67,0v.13h19.85V484.7ZM382,550a16,16,0,1,1,16-16A16,16,0,0,1,382,550Z"/><path id="icono_paisaje" data-name="icono paisaje" class="cls-3" d="M329,134V395h16.57l27.2-90,22.75-75.27a4.65,4.65,0,0,1,8.9,0L427.17,305l7.7,25.47,2-5.47,20.81-57.83a4.65,4.65,0,0,1,8.75,0L487.19,325l25.18,70H590V134Zm198.5,89A26.5,26.5,0,1,1,554,196.5,26.49,26.49,0,0,1,527.5,223Z"/></g><g id="brillo-2" data-name="brillo"><line class="cls-4" x1="137.97" y1="270.67" x2="30.97" y2="200.67"/><line class="cls-4" x1="137.97" y1="381.84" x2="84.47" y2="369.05"/><line class="cls-4" x1="137.97" y1="474.76" x2="-0.03" y2="481.67"/><line class="cls-4" x1="137.97" y1="626.42" x2="68.97" y2="678.5"/><line class="cls-4" x1="804.97" y1="260.29" x2="901.97" y2="190.5"/><line class="cls-4" x1="804.97" y1="347.61" x2="853.47" y2="326.16"/><line class="cls-4" x1="804.97" y1="494.67" x2="973.1" y2="494.67"/><line class="cls-4" x1="778.54" y1="605.34" x2="844.41" y2="644.67"/></g></g></svg>