<svg id="wireframes_línea" data-name="wireframes línea" xmlns="http://www.w3.org/2000/svg" viewBox="0 0 768 1366"><defs><style>.cls-1,.cls-2{fill:none;stroke:#f0f;}.cls-1{stroke-miterlimit:10;stroke-width:4px;}.cls-2{stroke-linecap:round;stroke-linejoin:round;stroke-width:10px;}.cls-3{fill:#f0f;}</style></defs><rect class="cls-1" x="144" y="228" width="438" height="856" rx="63.75"/><path class="cls-1" d="M309,228H542a61,61,0,0,1,61,61v746a61,61,0,0,1-61,61H205a61,61,0,0,1-61-61V966"/><path class="cls-1" d="M509.6,253.83H477.68a17,17,0,0,0-16.79,17.1h0A17,17,0,0,1,444.09,288H281.91a17,17,0,0,1-16.8-17.11h0a17,17,0,0,0-16.79-17.1H216.4c-24.24,0-43.9,20-43.9,44.71v714.92c0,24.69,19.66,44.71,43.9,44.71H509.6c24.24,0,43.9-20,43.9-44.71V298.54C553.5,273.85,533.84,253.83,509.6,253.83Z"/><line class="cls-2" x1="333" y1="257" x2="393" y2="257"/><circle class="cls-3" cx="414" cy="257" r="5"/><rect class="cls-1" x="233" y="360" width="261" height="261"/><line class="cls-1" x1="233" y1="360" x2="494" y2="621"/><line class="cls-1" x1="494" y1="360" x2="233" y2="621"/><rect class="cls-1" x="232.93" y="710.7" width="105.93" height="105.93"/><line class="cls-1" x1="232.93" y1="710.7" x2="338.85" y2="816.63"/><line class="cls-1" x1="338.85" y1="710.7" x2="232.93" y2="816.63"/><line class="cls-1" x1="494" y1="711" x2="393" y2="711"/><line class="cls-1" x1="494" y1="746.33" x2="393" y2="746.33"/><line class="cls-1" x1="494" y1="781.67" x2="393" y2="781.67"/><line class="cls-1" x1="494" y1="817" x2="393" y2="817"/><line class="cls-1" x1="494" y1="907" x2="233" y2="907"/><line class="cls-1" x1="494" y1="872" x2="233" y2="872"/><line class="cls-1" x1="494" y1="977" x2="233" y2="977"/><line class="cls-1" x1="494" y1="942" x2="233" y2="942"/></svg>