<svg xmlns="http://www.w3.org/2000/svg" viewBox="0 0 973 1072"><defs><style>.cls-1,.cls-2{fill:#fff;}.cls-2{stroke:#fff;stroke-linecap:round;stroke-linejoin:round;stroke-width:2px;}</style></defs><g id="ux"><g id="móvil"><circle class="cls-1" cx="527" cy="166" r="5"/><path class="cls-1" d="M655,135H320.78A65.83,65.83,0,0,0,255,200.75V941.2a63,63,0,0,0,63,62.8H655a63,63,0,0,0,63-62.8V197.8A63,63,0,0,0,655,135ZM259,200.75A61.82,61.82,0,0,1,320.78,139h310.5A61.82,61.82,0,0,1,693,200.75v728.5A61.82,61.82,0,0,1,631.28,991H320.78A61.82,61.82,0,0,1,259,929.25V200.75Z"/><path class="cls-1" d="M329.4,969.17H622.6c25.31,0,45.9-20.95,45.9-46.71V207.54c0-25.76-20.59-46.71-45.9-46.71H590.68a19,19,0,0,0-18.79,19.1,15.16,15.16,0,0,1-4.35,10.7A14.59,14.59,0,0,1,557.09,195H394.91a15,15,0,0,1-14.8-15.11,19.15,19.15,0,0,0-5.49-13.49,18.49,18.49,0,0,0-13.3-5.61H329.4c-25.31,0-45.9,20.95-45.9,46.71V922.46C283.5,948.22,304.09,969.17,329.4,969.17ZM287.5,207.54c0-23.55,18.8-42.71,41.9-42.71h31.92a14.55,14.55,0,0,1,10.44,4.41,15.16,15.16,0,0,1,4.35,10.69A19,19,0,0,0,394.91,199H557.09a18.55,18.55,0,0,0,13.31-5.61,19.17,19.17,0,0,0,5.49-13.5,15,15,0,0,1,14.79-15.1H622.6c23.1,0,41.9,19.16,41.9,42.71V922.46c0,23.55-18.8,42.71-41.9,42.71H329.4c-23.1,0-41.9-19.16-41.9-42.71Z"/><path class="cls-1" d="M446,171h60a5,5,0,0,0,0-10H446a5,5,0,0,0,0,10Z"/></g><g id="pantalla"><path id="cuadrado_grande_arriba" data-name="cuadrado grande arriba" class="cls-1" d="M608.85,530.76l.06-.2a.84.84,0,0,0,.05-.17,1.72,1.72,0,0,0,0-.39V269a1.72,1.72,0,0,0,0-.39.84.84,0,0,0-.05-.17l-.06-.2a1.28,1.28,0,0,0-.11-.2.55.55,0,0,0-.08-.15,1.8,1.8,0,0,0-.55-.55.55.55,0,0,0-.15-.08l-.2-.11-.2-.06-.17,0a1.72,1.72,0,0,0-.39,0H346a1.72,1.72,0,0,0-.39,0l-.17,0-.21.06-.18.1a1.29,1.29,0,0,0-.16.09,1.8,1.8,0,0,0-.55.55.55.55,0,0,0-.08.15,1.28,1.28,0,0,0-.11.2l-.06.2a.84.84,0,0,0,0,.17,1.72,1.72,0,0,0,0,.39V530a1.72,1.72,0,0,0,0,.39.84.84,0,0,0,0,.17l.06.2a1.28,1.28,0,0,0,.11.2.55.55,0,0,0,.08.15,1.8,1.8,0,0,0,.55.55.83.83,0,0,0,.16.09l.19.1.2.06.17.05a1.72,1.72,0,0,0,.39,0H607a1.72,1.72,0,0,0,.39,0l.17-.05.2-.06.2-.11a.55.55,0,0,0,.15-.08,1.8,1.8,0,0,0,.55-.55.55.55,0,0,0,.08-.15A1.28,1.28,0,0,0,608.85,530.76ZM473.67,399.5,348,525.17V273.83ZM350.83,271H602.17L476.5,396.67ZM476.5,402.33,602.17,528H350.83Zm2.83-2.83L605,273.83V525.17Z"/><path id="cuadrado_pequeño_izquierda" data-name="cuadrado pequeño izquierda" class="cls-1" d="M453.7,726.39a1.17,1.17,0,0,0,.06-.2.84.84,0,0,0,.05-.17,1.72,1.72,0,0,0,0-.39V619.7a1.72,1.72,0,0,0,0-.39,1.09,1.09,0,0,0-.05-.17,1.17,1.17,0,0,0-.06-.2c0-.07-.07-.13-.1-.2a.67.67,0,0,0-.09-.14A2,2,0,0,0,453,618l-.16-.09-.18-.09-.21-.07-.17,0a2.58,2.58,0,0,0-.39,0H345.93a2.58,2.58,0,0,0-.4,0l-.16,0-.21.07L345,618l-.16.09a2.13,2.13,0,0,0-.56.56s-.05.09-.08.14l-.1.2a1.17,1.17,0,0,0-.06.2l-.06.17a2.56,2.56,0,0,0,0,.39V725.63a2.56,2.56,0,0,0,0,.39l.06.17a1.17,1.17,0,0,0,.06.2l.1.2.08.15a2,2,0,0,0,.56.55l.15.08a1.18,1.18,0,0,0,.19.11l.2.06.17.05a1.75,1.75,0,0,0,.4,0H451.85a1.72,1.72,0,0,0,.39,0l.17-.05.21-.06.19-.1a1.19,1.19,0,0,0,.15-.09,1.8,1.8,0,0,0,.55-.55,1.19,1.19,0,0,0,.09-.15C453.63,726.52,453.67,726.46,453.7,726.39Zm-57.64-53.72L347.93,720.8V624.53Zm-45.31-51H447l-48.13,48.14Zm48.14,53.79L447,723.63H350.75Zm2.83-2.82,48.13-48.14V720.8Z"/><g id="líneas_cortas_derecha" data-name="líneas cortas derecha"><path id="línea_4" data-name="línea 4" class="cls-1" d="M607,728H506a2,2,0,0,1,0-4H607a2,2,0,0,1,0,4Z"/><path id="línea_3" data-name="línea 3" class="cls-1" d="M607,692.67H506a2,2,0,0,1,0-4H607a2,2,0,0,1,0,4Z"/><path id="línea_2" data-name="línea 2" class="cls-1" d="M607,657.33H506a2,2,0,1,1,0-4H607a2,2,0,0,1,0,4Z"/><path id="línea_1" data-name="línea 1" class="cls-1" d="M607,622H506a2,2,0,0,1,0-4H607a2,2,0,0,1,0,4Z"/></g><g id="líneas_largas_abajo" data-name="líneas largas abajo"><path id="línea_4-2" data-name="línea 4" class="cls-1" d="M607,888H346a2,2,0,0,1,0-4H607a2,2,0,0,1,0,4Z"/><path id="línea_3-2" data-name="línea 3" class="cls-1" d="M607,853H346a2,2,0,0,1,0-4H607a2,2,0,0,1,0,4Z"/><path id="línea_2-2" data-name="línea 2" class="cls-1" d="M607,818H346a2,2,0,0,1,0-4H607a2,2,0,0,1,0,4Z"/><path id="línea_1-2" data-name="línea 1" class="cls-1" d="M607,783H346a2,2,0,0,1,0-4H607a2,2,0,0,1,0,4Z"/></g></g><g id="brillo"><line class="cls-2" x1="153.97" y1="401.67" x2="46.97" y2="331.67"/><line class="cls-2" x1="153.97" y1="512.84" x2="100.47" y2="500.05"/><line class="cls-2" x1="153.97" y1="605.76" x2="15.97" y2="612.67"/><line class="cls-2" x1="153.97" y1="757.42" x2="84.97" y2="809.5"/><line class="cls-2" x1="820.97" y1="391.29" x2="917.97" y2="321.5"/><line class="cls-2" x1="820.97" y1="478.61" x2="869.47" y2="457.16"/><line class="cls-2" x1="820.97" y1="625.67" x2="989.1" y2="625.67"/><line class="cls-2" x1="794.54" y1="736.34" x2="860.41" y2="775.67"/></g></g></svg>