<svg xmlns="http://www.w3.org/2000/svg" viewBox="0 0 973 869"><defs><style>.cls-1,.cls-4{fill:#fff;}.cls-2{fill:#ef75ff;}.cls-3{fill:#59fff1;}.cls-4{stroke:#fff;stroke-linecap:round;stroke-linejoin:round;stroke-width:2px;}</style></defs><g id="marketing"><g id="móvil"><circle class="cls-1" cx="513" cy="31" r="5"/><path class="cls-1" d="M641,0H306.75A65.83,65.83,0,0,0,241,65.75V806.2A63,63,0,0,0,304,869H641a63,63,0,0,0,63-62.8V62.8A63,63,0,0,0,641,0ZM245,65.75A61.82,61.82,0,0,1,306.75,4h310.5A61.82,61.82,0,0,1,679,65.75v728.5A61.82,61.82,0,0,1,617.25,856H306.75A61.82,61.82,0,0,1,245,794.25V65.75Z"/><path class="cls-1" d="M315.4,834.17H608.6c25.31,0,45.9-20.95,45.9-46.71V72.54c0-25.76-20.59-46.71-45.9-46.71H576.68a19,19,0,0,0-18.79,19.1,15.16,15.16,0,0,1-4.35,10.7A14.59,14.59,0,0,1,543.09,60H380.91a15,15,0,0,1-14.8-15.11,19.15,19.15,0,0,0-5.49-13.49,18.49,18.49,0,0,0-13.3-5.61H315.4c-25.31,0-45.9,21-45.9,46.71V787.46C269.5,813.22,290.09,834.17,315.4,834.17ZM273.5,72.54c0-23.55,18.8-42.71,41.9-42.71h31.92a14.55,14.55,0,0,1,10.44,4.41,15.16,15.16,0,0,1,4.35,10.69A19,19,0,0,0,380.91,64H543.09a18.55,18.55,0,0,0,13.31-5.61,19.17,19.17,0,0,0,5.49-13.5,15,15,0,0,1,14.79-15.1H608.6c23.1,0,41.9,19.16,41.9,42.71V787.46c0,23.55-18.8,42.71-41.9,42.71H315.4c-23.1,0-41.9-19.16-41.9-42.71Z"/><path class="cls-1" d="M432,36h60a5,5,0,0,0,0-10H432a5,5,0,0,0,0,10Z"/></g><g id="altavoz"><path class="cls-2" d="M384.45,556.88l10.16,24,10.16,24q59.16-19.68,99.71-1.11l-17.41-41.08-7.53-17.78-6.7-15.8L454.6,486Q439.74,528.07,384.45,556.88Z"/><rect class="cls-2" x="434.31" y="524.61" width="144.58" height="17.58" rx="8.79" transform="translate(213.14 1207.97) rotate(-112.97)"/><path class="cls-2" d="M355.2,574.29h0a26.17,26.17,0,0,1,26.17,26.17v20.37a0,0,0,0,1,0,0H329a0,0,0,0,1,0,0V600.46A26.17,26.17,0,0,1,355.2,574.29Z" transform="translate(-56.41 1157.76) rotate(-112.97)"/><path class="cls-2" d="M370.12,662.11h69.07a0,0,0,0,1,0,0v22.31a0,0,0,0,1,0,0H370.12A11.15,11.15,0,0,1,359,673.27v0A11.15,11.15,0,0,1,370.12,662.11Z" transform="translate(-65.12 1303.41) rotate(-112.97)"/><rect class="cls-2" x="543.31" y="501.97" width="39.04" height="15.45" rx="7.72" transform="translate(-154.26 260) rotate(-22.97)"/><path class="cls-2" d="M550.49,464.64,539,487a7.73,7.73,0,0,1-10.82,1.51h0a7.72,7.72,0,0,1-1.51-10.81l11.48-22.34A7.72,7.72,0,0,1,549,453.82h0A7.73,7.73,0,0,1,550.49,464.64Z"/><path class="cls-2" d="M560.6,557.74l24,7.29a7.73,7.73,0,0,0,8.61-6.72h0a7.73,7.73,0,0,0-6.72-8.61l-24-7.29a7.72,7.72,0,0,0-8.61,6.72h0A7.71,7.71,0,0,0,560.6,557.74Z"/></g><g id="corazón"><path class="cls-3" d="M382.85,399.2c-19.66-29.7-55.66-11.57-42.77,19.8,8.63,18.19,26.92,30.66,51.48,43.6,20.08-19.18,34.24-36.19,37.55-56.05C432.91,372.85,393.61,365.25,382.85,399.2Z"/></g><g id="bocadillo_borde_color" data-name="bocadillo borde color"><path id="bocadillo" class="cls-3" d="M568.48,390.73a2.22,2.22,0,0,1-1.36-.47l-39.68-30.7H479.39a15.1,15.1,0,0,1-15.08-15.08V294.63a15.1,15.1,0,0,1,15.08-15.08H580.23a15.1,15.1,0,0,1,15.08,15.08v49.85a15.1,15.1,0,0,1-15.08,15.08h-9.5v28.92a2.22,2.22,0,0,1-1.26,2A2.16,2.16,0,0,1,568.48,390.73ZM479.39,283.55a11.09,11.09,0,0,0-11.08,11.08v49.85a11.09,11.09,0,0,0,11.08,11.08H528a2.18,2.18,0,0,1,1.39.49l37.3,28.85V357.8a2.24,2.24,0,0,1,2.24-2.24h11.26a11.09,11.09,0,0,0,11.08-11.08V294.63a11.09,11.09,0,0,0-11.08-11.08ZM527,359.2l0,0Z"/><g id="_3_puntos" data-name="3 puntos"><circle class="cls-3" cx="498.12" cy="320" r="9.5"/><circle class="cls-3" cx="529.81" cy="320.5" r="9.5"/><circle class="cls-3" cx="561.5" cy="321" r="9.5"/></g></g><g id="bocadillo_bloque_color" data-name="bocadillo bloque color"><path class="cls-3" d="M504.92,159H404.08A13.08,13.08,0,0,0,391,172.08v49.86A13.08,13.08,0,0,0,404.08,235h11.26a.24.24,0,0,1,.24.24v30.68a.24.24,0,0,0,.39.19l40.15-31.06a.24.24,0,0,1,.14,0h48.66A13.08,13.08,0,0,0,518,221.94V172.08A13.08,13.08,0,0,0,504.92,159Zm-82.11,48a10.5,10.5,0,1,1,10.5-10.5A10.51,10.51,0,0,1,422.81,207Zm31.69.5A10.5,10.5,0,1,1,465,197,10.51,10.51,0,0,1,454.5,207.5Zm31.69.5a10.5,10.5,0,1,1,10.5-10.5A10.51,10.51,0,0,1,486.19,208Z"/></g><g id="brillo-2" data-name="brillo"><line class="cls-4" x1="137.97" y1="270.67" x2="30.97" y2="200.67"/><line class="cls-4" x1="137.97" y1="381.84" x2="84.47" y2="369.05"/><line class="cls-4" x1="137.97" y1="474.76" x2="-0.03" y2="481.67"/><line class="cls-4" x1="137.97" y1="626.42" x2="68.97" y2="678.5"/><line class="cls-4" x1="804.97" y1="260.29" x2="901.97" y2="190.5"/><line class="cls-4" x1="804.97" y1="347.61" x2="853.47" y2="326.16"/><line class="cls-4" x1="804.97" y1="494.67" x2="973.1" y2="494.67"/><line class="cls-4" x1="778.54" y1="605.34" x2="844.41" y2="644.67"/></g></g></svg>